# xmcd
#
# Track frame offsets:
#	150
#	14195
#	29235
#	39507
#	56688
#	68219
#	78212
#	93293
#	106805
#	122619
#	138995
#	153965
#	164361
#	175127
#	187684
#
# Disc length: 2653 seconds
#
# Revision: 1
# Processed by: cddbd v1.5.2PL0 Copyright (c) Steve Scherf et al.
# Submitted via: audiograbber 1.83.01
#
DISCID=bf0a5b0f
DTITLE=Various Artist - A Whole Lotta Country Volume 2
DYEAR=1900
DGENRE=
TTITLE0=Glen Campbell - Rhinestone Cowboy
TTITLE1=Billy Jo Spears - (Hey Won't You Play) Another Somebody Done Somebody W
TTITLE1=rong Song
TTITLE2=Bobby Darin - Eighteen Yellow Roses 
TTITLE3=Don Williams - Old Coyote Town
TTITLE4=Wanda Jackson - In The Middle Of A Heartache
TTITLE5=Willie Nelson - Touch Me
TTITLE6=Jessie Colter - I'm Not Lisa
TTITLE7=John Stewart - July, You're A Woman
TTITLE8=The Band - The Night They Drove Old Dixie Down
TTITLE9=Clint Beattie - I Believe (The Wheel Does Turn)
TTITLE10=Juice Newton - Queen Of Hearts
TTITLE11=Slim Dusty - Country Revival
TTITLE12=Bill and Boyd - Put Another Log On The Fire
TTITLE13=Dr Hook - Only Sixteen
TTITLE14=Jody Miller - He Walks Like A Man
EXTD=
EXTT0=
EXTT1=
EXTT2=
EXTT3=
EXTT4=
EXTT5=
EXTT6=
EXTT7=
EXTT8=
EXTT9=
EXTT10=
EXTT11=
EXTT12=
EXTT13=
EXTT14=
PLAYORDER=
